# xmcd
#
# Track frame offsets:
# 150
# 11942
# 25995
# 42350
# 59255
# 76910
# 92727
# 111830
# 127892
# 147702
# 171892
# 184360
# 204687
# 227490
# 241152
# 259140
# 277325
# 294987
# 312300
#
# Disc length: 4432 seconds
#
#
# Revision: 5
# Processed by: cddbd v1.5.2PL0 Copyright (c) Steve Scherf et al.
# Submitted via: FreeRIP 2.942 
#
DISCID=1b114e13
DTITLE=The Beautiful South - Painting It Red
DYEAR=2000
DGENRE=Pop
TTITLE0=Who's Gonna Tell
TTITLE1=Closer Than Most
TTITLE2=Just Checkin'
TTITLE3=Hit Parade
TTITLE4=Masculine Eclipse
TTITLE5='Til You Can't Tuck It In
TTITLE6=If We Crawl
TTITLE7=Tupperware Queen
TTITLE8=Half-Hearted Get (Is Second Best)
TTITLE9=The River
TTITLE10=Baby Please Go
TTITLE11=You Can Call Me Leisure
TTITLE12=Final Spark
TTITLE13=10,000 Feet
TTITLE14=Hot On The Heels Of Heartbreak
TTITLE15=The Mediterranean
TTITLE16=A Little Piece Of Advice
TTITLE17=Property Quiz
TTITLE18=Chicken Wings
EXTD=
EXTT0=
EXTT1=
EXTT2=
EXTT3=
EXTT4=
EXTT5=
EXTT6=
EXTT7=
EXTT8=
EXTT9=
EXTT10=
EXTT11=
EXTT12=
EXTT13=
EXTT14=
EXTT15=
EXTT16=
EXTT17=
EXTT18=
PLAYORDER=
